<!-- Edit Pet Icon Fofinho -->
<svg xmlns="http://www.w3.org/2000/svg" viewBox="0 0 64 64"
     style="--bg:#fff8ef; --stroke:#1f2937; --ear:#ffc188; --pencil:#ffffff; --accent:#ff8a00; --eye:#1f2937;">
  <defs>
    <style>
      .bg { fill: var(--bg); stroke: var(--stroke); stroke-width: 2; }
      .ear { fill: var(--ear); stroke: var(--stroke); stroke-width: 2; }
      .pencil { fill: var(--pencil); stroke: var(--stroke); stroke-width: 2; }
      .accent { fill: var(--accent); stroke: var(--stroke); stroke-width: 2; }
      .eye { fill: var(--eye); }
      .hairline { stroke: var(--stroke); stroke-width: 2; fill: none; stroke-linecap: round; }
    </style>
    <filter id="soft" x="-20%" y="-20%" width="140%" height="140%">
      <feDropShadow dx="0" dy="1.5" stdDeviation="1.5" flood-opacity="0.18"/>
    </filter>
  </defs>

  <!-- Cabeça do cachorrinho -->
  <g filter="url(#soft)">
    <rect class="bg" x="10" y="16" width="44" height="40" rx="14" />
  </g>

  <!-- Orelha esquerda (caída e arredondada) -->
  <path class="ear"
        d="M14 20
           C8 16, 8 10, 14 8
           C18 6, 22 8, 22 12
           C22 15, 20 20, 18 22
           C16 24, 14 22, 14 20 Z"/>

  <!-- Orelha direita -->
  <path class="ear"
        d="M50 20
           C56 16, 56 10, 50 8
           C46 6, 42 8, 42 12
           C42 15, 44 20, 46 22
           C48 24, 50 22, 50 20 Z"/>

  <!-- Olhos -->
  <circle class="eye" cx="26" cy="32" r="2.5"/>
  <circle class="eye" cx="38" cy="32" r="2.5"/>

  <!-- Sorriso -->
  <path class="hairline" d="M26 40 C30 44, 34 44, 38 40"/>

  <!-- Lápis fofinho -->
  <g transform="rotate(-35 44 44)">
    <!-- Borracha -->
    <rect class="accent" x="36" y="42" width="8" height="8" rx="2"/>
    <!-- Corpo do lápis -->
    <rect class="pencil" x="20" y="43" width="16" height="6" rx="3"/>
    <!-- Ponteira -->
    <path class="pencil" d="M16 46 L20 40 L20 52 Z"/>
    <!-- Grafite -->
    <path class="hairline" d="M16 46 L14 46"/>
  </g>
</svg>
