<svg xmlns="http://www.w3.org/2000/svg" viewBox="0 0 200 48">
  <defs>
    <style>
      .bg { fill: #ffffff; stroke: #1f2937; stroke-width: 2; }
      .ear { fill: var(--color-secondary); stroke: #1f2937; stroke-width: 2; }
      .label { fill: var(--color-primary); font-family: Arial, sans-serif; font-weight: bold; font-size: 14px; }
    </style>
    <filter id="soft" x="-20%" y="-20%" width="140%" height="140%">
      <feDropShadow dx="0" dy="1.5" stdDeviation="1.5" flood-opacity="0.18"/>
    </filter>
  </defs>

  <!-- Fundo -->
  <g filter="url(#soft)">
    <rect class="bg" x="8" y="8" width="184" height="32" rx="8"/>
  </g>

  <!-- Orelhas decorativas -->
  <path class="ear" d="M18 12 C10 9, 10 4, 16 2 C20 0, 24 2, 24 6 C24 9, 22 13, 20 15 C18 17, 16 15, 16 12 Z"/>
  <path class="ear" d="M178 12 C182 9, 182 4, 176 2 C172 0, 168 2, 168 6 C168 9, 170 13, 172 15 C174 17, 176 15, 176 12 Z"/>

  <!-- Texto -->
  <text class="label" x="100" y="29" text-anchor="middle">SALVAR ALTERAÇÕES</text>
</svg>
