<svg width="512" height="512" viewBox="0 0 512 512" xmlns="http://www.w3.org/2000/svg" role="img" aria-labelledby="title desc">
  <title>Imagem indisponível</title>
  <desc>Ilustração de um pet como imagem de reserva</desc>
  <defs>
    <linearGradient id="bg" x1="0%" y1="0%" x2="100%" y2="100%">
      <stop offset="0%" stop-color="#f3f4f6" />
      <stop offset="100%" stop-color="#e5e7eb" />
    </linearGradient>
  </defs>
  <rect x="24" y="24" width="464" height="464" rx="32" fill="url(#bg)" stroke="#d1d5db" stroke-width="8" />
  <g fill="none" stroke="#6b7280" stroke-width="18" stroke-linecap="round" stroke-linejoin="round">
    <path d="M196 332c18-24 48-38 60-38s42 14 60 38" />
    <path d="M178 306c-22-10-34-32-30-60 6-36 40-66 92-66s86 30 92 66c5 28-8 50-30 60" />
    <path d="M230 214c0-18-12-32-26-32s-26 14-26 32c0 18 12 32 26 32s26-14 26-32z" />
    <path d="M336 214c0-18-12-32-26-32s-26 14-26 32c0 18 12 32 26 32s26-14 26-32z" />
  </g>
  <circle cx="186" cy="202" r="18" fill="#1f2937" opacity="0.2" />
  <circle cx="326" cy="202" r="18" fill="#1f2937" opacity="0.2" />
  <circle cx="256" cy="276" r="10" fill="#9ca3af" />
  <path d="M188 370h136" stroke="#9ca3af" stroke-width="18" stroke-linecap="round" />
  <path d="M160 402h192" stroke="#9ca3af" stroke-width="14" stroke-linecap="round" />
</svg>
