<svg xmlns="http://www.w3.org/2000/svg" viewBox="0 0 2000 2000" width="200" height="200">
  <!-- Patinha preenchida (preto). Ajuste a cor em fill. -->
  <g fill="#000">
    <path d="M 1004,899 L 1003,900 L 991,900 L 990,901 L 983,901 L 982,902 L 976,902 L 975,903 L 970,903 L 969,904 L 965,904 L 964,905 L 960,905 L 959,906 L 956,906 L 955,907 L 952,907 L 951,908 L 948,908 L 947,909 L 944,909 L 943,910 L 941,910 L 940,911 L 938,911 L 937,912 L 935,912 L 934,913 L 932,913 L 931,914 L 929,914 L 928,915 L 927,915 L 926,916 L 924,916 L 923,917 L 922,917 L 921,918 L 919,918 L 918,919 L 917,919 L 916,920 L 915,920 L 914,921 L 913,921 L 912,922 L 911,922 L 910,923 L 908,923 L 907,924 L 906,924 L 904,926 L 903,926 L 902,927 L 901,927 L 900,928 L 899,928 L 898,929 L 897,929 L 896,930 L 895,930 L 893,932 L 892,932 L 891,933 L 890,933 L 888,935 L 887,935 L 886,936 L 885,936 L 883,938 L 882,938 L 880,940 L 879,940 L 876,943 L 875,943 L 873,945 L 872,945 L 869,948 L 868,948 L 865,951 L 864,951 L 861,954 L 860,954 L 855,959 L 854,959 L 847,966 L 846,966 L 814,998 L 814,999 L 806,1007 L 806,1008 L 800,1014 L 800,1015 L 795,1020 L 795,1021 L 790,1026 L 790,1027 L 786,1031 L 786,1032 L 781,1037 L 781,1038 L 778,1041 L 778,1042 L 774,1046 L 774,1047 L 771,1050 L 771,1051 L 767,1055 L 767,1056 L 764,1059 L 764,1060 L 761,1063 L 761,1064 L 758,1067 L 758,1068 L 755,1071 L 755,1072 L 752,1075 L 752,1076 L 750,1078 L 750,1079 L 747,1082 L 747,1083 L 744,1086 L 744,1087 L 741,1090 L 741,1091 L 739,1093 L 739,1094 L 736,1097 L 736,1098 L 733,1101 L 733,1102 L 731,1104 L 731,1105 L 728,1108 L 728,1109 L 726,1111 L 726,1112 L 723,1115 L 723,1116 L 720,1119 L 720,1120 L 718,1122 L 718,1123 L 715,1126 L 715,1127 L 713,1129 L 713,1130 L 710,1133 L 710,1134 L 708,1136 L 708,1137 L 705,1140 L 705,1141 L 702,1144 L 702,1145 L 700,1147 L 700,1148 L 697,1151 L 697,1152 L 694,1155 L 694,1156 L 692,1158 L 692,1159 L 689,1162 L 689,1163 L 686,1166 L 686,1167 L 683,1170 L 683,1171 L 680,1174 L 680,1175 L 677,1178 L 677,1179 L 675,1181 L 675,1182 L 672,1185 L 672,1186 L 669,1189 L 669,1190 L 666,1193 L 666,1194 L 662,1198 L 662,1199 L 659,1202 L 659,1203 L 656,1206 L 656,1207 L 652,1211 L 652,1212 L 649,1215 L 649,1216 L 646,1219 L 646,1220 L 642,1224 L 642,1225 L 638,1229 L 638,1230 L 634,1234 L 634,1235 L 630,1239 L 630,1240 L 626,1244 L 626,1245 L 621,1250 L 621,1251 L 617,1255 L 617,1256 L 612,1261 L 612,1262 L 606,1268 L 606,1269 L 600,1275 L 600,1276 L 593,1283 L 593,1284 L 586,1291 L 586,1292 L 576,1302 L 576,1303 L 561,1318 L 561,1319 L 531,1349 L 530,1349 L 517,1362 L 516,1362 L 485,1393 L 485,1394 L 480,1399 L 480,1400 L 476,1404 L 476,1405 L 473,1408 L 473,1409 L 470,1412 L 470,1413 L 467,1416 L 467,1417 L 465,1419 L 465,1420 L 463,1422 L 463,1423 L 461,1425 L 461,1426 L 460,1427 L 460,1428 L 458,1430 L 458,1431 L 457,1432 L 457,1433 L 456,1434 L 456,1435 L 454,1437 L 454,1438 L 453,1439 L 453,1440 L 452,1441 L 452,1442 L 451,1443 L 451,1444 L 450,1445 L 450,1446 L 449,1447 L 449,1448 L 448,1449 L 448,1450 L 447,1451 L 447,1452 L 446,1453 L 446,1454 L 445,1455 L 445,1457 L 444,1458 L 444,1459 L 443,1460 L 443,1461 L 442,1462 L 442,1464 L 441,1465 L 441,1466 L 440,1467 L 440,1469 L 439,1470 L 439,1472 L 438,1473 L 438,1475 L 437,1476 L 437,1478 L 436,1479 L 436,1481 L 435,1482 L 435,1485 L 434,1486 L 434,1488 L 433,1489 L 433,1492 L 432,1493 L 432,1497 L 431,1498 L 431,1501 L 430,1502 L 430,1507 L 429,1508 L 429,1513 L 428,1514 L 428,1520 L 427,1521 L 427,1532 L 426,1533 L 426,1556 L 427,1557 L 427,1568 L 428,1569 L 428,1575 L 429,1576 L 429,1581 L 430,1582 L 430,1586 L 431,1587 L 431,1591 L 432,1592 L 432,1595 L 433,1596 L 433,1599 L 434,1600 L 434,1603 L 435,1604 L 435,1606 L 436,1607 L 436,1610 L 437,1611 L 437,1613 L 438,1614 L 438,1616 L 439,1617 L 439,1618 L 440,1619 L 440,1621 L 441,1622 L 441,1624 L 442,1625 L 442,1627 L 443,1628 L 443,1629 L 444,1630 L 444,1631 L 445,1632 L 445,1634 L 446,1635 L 446,1636 L 447,1637 L 447,1638 L 448,1639 L 448,1640 L 449,1641 L 449,1642 L 450,1643 L 450,1644 L 451,1645 L 451,1646 L 452,1647 L 452,1648 L 453,1649 L 453,1650 L 454,1651 L 454,1652 L 455,1653 L 455,1654 L 456,1655 L 456,1656 L 458,1658 L 458,1659 L 459,1660 L 459,1661 L 460,1662 L 460,1663 L 462,1665 L 462,1666 L 463,1667 L 463,1668 L 465,1670 L 465,1671 L 467,1673 L 467,1674 L 469,1676 L 469,1677 L 472,1680 L 472,1681 L 474,1683 L 474,1684 L 477,1687 L 477,1688 L 481,1692 L 481,1693 L 485,1697 L 485,1698 L 494,1707 L 494,1708 L 505,1719 L 506,1719 L 514,1727 L 515,1727 L 520,1732 L 521,1732 L 525,1736 L 526,1736 L 529,1739 L 530,1739 L 533,1742 L 534,1742 L 536,1744 L 537,1744 L 539,1746 L 540,1746 L 542,1748 L 543,1748 L 545,1750 L 546,1750 L 548,1752 L 549,1752 L 550,1753 L 551,1753 L 553,1755 L 554,1755 L 555,1756 L 556,1756 L 558,1758 L 559,1758 L 560,1759 L 561,1759 L 562,1760 L 563,1760 L 564,1761 L 565,1761 L 566,1762 L 567,1762 L 568,1763 L 569,1763 L 570,1764 L 571,1764 L 572,1765 L 573,1765 L 574,1766 L 575,1766 L 576,1767 L 577,1767 L 578,1768 L 579,1768 L 580,1769 L 581,1769 L 582,1770 L 583,1770 L 584,1771 L 586,1771 L 587,1772 L 588,1772 L 589,1773 L 590,1773 L 591,1774 L 593,1774 L 594,1775 L 596,1775 L 597,1776 L 598,1776 L 599,1777 L 601,1777 L 602,1778 L 604,1778 L 605,1779 L 607,1779 L 608,1780 L 610,1780 L 611,1781 L 613,1781 L 614,1782 L 617,1782 L 618,1783 L 620,1783 L 621,1784 L 624,1784 L 625,1785 L 628,1785 L 629,1786 L 632,1786 L 633,1787 L 637,1787 L 638,1788 L 642,1788 L 643,1789 L 647,1789 L 648,1790 L 653,1790 L 654,1791 L 659,1791 L 660,1792 L 667,1792 L 668,1793 L 676,1793 L 677,1794 L 689,1794 L 690,1795 L 747,1795 L 748,1794 L 762,1794 L 763,1793 L 773,1793 L 774,1792 L 781,1792 L 782,1791 L 789,1791 L 790,1790 L 796,1790 L 797,1789 L 802,1789 L 803,1788 L 808,1788 L 809,1787 L 814,1787 L 815,1786 L 819,1786 L 820,1785 L 825,1785 L 826,1784 L 829,1784 L 830,1783 L 834,1783 L 835,1782 L 839,1782 L 840,1781 L 843,1781 L 844,1780 L 847,1780 L 848,1779 L 851,1779 L 852,1778 L 855,1778 L 856,1777 L 859,1777 L 860,1776 L 862,1776 L 863,1775 L 866,1775 L 867,1774 L 869,1774 L 870,1773 L 872,1773 L 873,1772 L 875,1772 L 876,1771 L 879,1771 L 880,1770 L 882,1770 L 883,1769 L 885,1769 L 886,1768 L 887,1768 L 888,1767 L 890,1767 L 891,1766 L 893,1766 L 894,1765 L 896,1765 L 897,1764 L 899,1764 L 900,1763 L 902,1763 L 903,1762 L 905,1762 L 906,1761 L 907,1761 L 908,1760 L 910,1760 L 911,1759 L 913,1759 L 914,1758 L 916,1758 L 917,1757 L 919,1757 L 920,1756 L 921,1756 L 922,1755 L 924,1755 L 925,1754 L 927,1754 L 928,1753 L 930,1753 L 931,1752 L 932,1752 L 933,1751 L 935,1751 L 936,1750 L 938,1750 L 939,1749 L 941,1749 L 942,1748 L 944,1748 L 945,1747 L 946,1747 L 947,1746 L 949,1746 L 950,1745 L 952,1745 L 953,1744 L 955,1744 L 956,1743 L 958,1743 L 959,1742 L 961,1742 L 962,1741 L 964,1741 L 965,1740 L 968,1740 L 969,1739 L 971,1739 L 972,1738 L 974,1738 L 975,1737 L 978,1737 L 979,1736 L 981,1736 L 982,1735 L 985,1735 L 986,1734 L 988,1734 L 989,1733 L 992,1733 L 993,1732 L 997,1732 L 998,1731 L 1002,1731 L 1003,1730 L 1009,1730 L 1010,1729 L 1019,1729 L 1020,1728 L 1027,1728 L 1028,1729 L 1037,1729 L 1038,1730 L 1044,1730 L 1045,1731 L 1049,1731 L 1050,1732 L 1054,1732 L 1055,1733 L 1058,1733 L 1059,1734 L 1061,1734 L 1062,1735 L 1065,1735 L 1066,1736 L 1068,1736 L 1069,1737 L 1072,1737 L 1073,1738 L 1075,1738 L 1076,1739 L 1078,1739 L 1079,1740 L 1081,1740 L 1082,1741 L 1084,1741 L 1085,1742 L 1087,1742 L 1088,1743 L 1090,1743 L 1091,1744 L 1093,1744 L 1094,1745 L 1096,1745 L 1097,1746 L 1099,1746 L 1100,1747 L 1102,1747 L 1103,1748 L 1104,1748 L 1105,1749 L 1107,1749 L 1108,1750 L 1110,1750 L 1111,1751 L 1113,1751 L 1114,1752 L 1115,1752 L 1116,1753 L 1118,1753 L 1119,1754 L 1121,1754 L 1122,1755 L 1123,1755 L 1124,1756 L 1126,1756 L 1127,1757 L 1129,1757 L 1130,1758 L 1132,1758 L 1133,1759 L 1134,1759 L 1135,1760 L 1137,1760 L 1138,1761 L 1140,1761 L 1141,1762 L 1143,1762 L 1144,1763 L 1146,1763 L 1147,1764 L 1149,1764 L 1150,1765 L 1152,1765 L 1153,1766 L 1155,1766 L 1156,1767 L 1158,1767 L 1159,1768 L 1161,1768 L 1162,1769 L 1164,1769 L 1165,1770 L 1167,1770 L 1168,1771 L 1170,1771 L 1171,1772 L 1174,1772 L 1175,1773 L 1177,1773 L 1178,1774 L 1181,1774 L 1182,1775 L 1184,1775 L 1185,1776 L 1188,1776 L 1189,1777 L 1191,1777 L 1192,1778 L 1195,1778 L 1196,1779 L 1199,1779 L 1200,1780 L 1203,1780 L 1204,1781 L 1208,1781 L 1209,1782 L 1212,1782 L 1213,1783 L 1217,1783 L 1218,1784 L 1221,1784 L 1222,1785 L 1226,1785 L 1227,1786 L 1232,1786 L 1233,1787 L 1237,1787 L 1238,1788 L 1243,1788 L 1244,1789 L 1249,1789 L 1250,1790 L 1257,1790 L 1258,1791 L 1264,1791 L 1265,1792 L 1273,1792 L 1274,1793 L 1284,1793 L 1285,1794 L 1299,1794 L 1300,1795 L 1327,1795 L 1328,1796 L 1341,1796 L 1342,1795 L 1362,1795 L 1363,1794 L 1373,1794 L 1374,1793 L 1381,1793 L 1382,1792 L 1388,1792 L 1389,1791 L 1394,1791 L 1395,1790 L 1399,1790 L 1400,1789 L 1405,1789 L 1406,1788 L 1409,1788 L 1410,1787 L 1414,1787 L 1415,1786 L 1418,1786 L 1419,1785 L 1422,1785 L 1423,1784 L 1425,1784 L 1426,1783 L 1429,1783 L 1430,1782 L 1432,1782 L 1433,1781 L 1436,1781 L 1437,1780 L 1439,1780 L 1440,1779 L 1442,1779 L 1443,1778 L 1445,1778 L 1446,1777 L 1447,1777 L 1448,1776 L 1450,1776 L 1451,1775 L 1453,1775 L 1454,1774 L 1455,1774 L 1456,1773 L 1458,1773 L 1459,1772 L 1460,1772 L 1461,1771 L 1462,1771 L 1463,1770 L 1465,1770 L 1466,1769 L 1467,1769 L 1468,1768 L 1469,1768 L 1470,1767 L 1471,1767 L 1472,1766 L 1473,1766 L 1474,1765 L 1475,1765 L 1476,1764 L 1477,1764 L 1478,1763 L 1479,1763 L 1480,1762 L 1481,1762 L 1482,1761 L 1483,1761 L 1484,1760 L 1485,1760 L 1486,1759 L 1487,1759 L 1488,1758 L 1489,1758 L 1491,1756 L 1492,1756 L 1493,1755 L 1494,1755 L 1496,1753 L 1497,1753 L 1498,1752 L 1499,1752 L 1501,1750 L 1502,1750 L 1504,1748 L 1505,1748 L 1507,1746 L 1508,1746 L 1511,1743 L 1512,1743 L 1514,1741 L 1515,1741 L 1518,1738 L 1519,1738 L 1522,1735 L 1523,1735 L 1527,1731 L 1528,1731 L 1534,1725 L 1535,1725 L 1560,1700 L 1560,1699 L 1565,1694 L 1565,1693 L 1569,1689 L 1569,1688 L 1572,1685 L 1572,1684 L 1575,1681 L 1575,1680 L 1577,1678 L 1577,1677 L 1580,1674 L 1580,1673 L 1582,1671 L 1582,1670 L 1583,1669 L 1583,1668 L 1585,1666 L 1585,1665 L 1587,1663 L 1587,1662 L 1588,1661 L 1588,1660 L 1589,1659 L 1589,1658 L 1591,1656 L 1591,1655 L 1592,1654 L 1592,1653 L 1593,1652 L 1593,1651 L 1594,1650 L 1594,1649 L 1595,1648 L 1595,1647 L 1596,1646 L 1596,1645 L 1597,1644 L 1597,1643 L 1598,1642 L 1598,1641 L 1599,1640 L 1599,1639 L 1600,1638 L 1600,1636 L 1601,1635 L 1601,1634 L 1602,1633 L 1602,1632 L 1603,1631 L 1603,1629 L 1604,1628 L 1604,1627 L 1605,1626 L 1605,1624 L 1606,1623 L 1606,1622 L 1607,1621 L 1607,1619 L 1608,1618 L 1608,1616 L 1609,1615 L 1609,1613 L 1610,1612 L 1610,1610 L 1611,1609 L 1611,1607 L 1612,1606 L 1612,1603 L 1613,1602 L 1613,1599 L 1614,1598 L 1614,1595 L 1615,1594 L 1615,1591 L 1616,1590 L 1616,1586 L 1617,1585 L 1617,1581 L 1618,1580 L 1618,1575 L 1619,1574 L 1619,1567 L 1620,1566 L 1620,1556 L 1621,1555 L 1621,1530 L 1620,1529 L 1620,1519 L 1619,1518 L 1619,1512 L 1618,1511 L 1618,1506 L 1617,1505 L 1617,1501 L 1616,1500 L 1616,1496 L 1615,1495 L 1615,1492 L 1614,1491 L 1614,1488 L 1613,1487 L 1613,1485 L 1612,1484 L 1612,1481 L 1611,1480 L 1611,1478 L 1610,1477 L 1610,1475 L 1609,1474 L 1609,1472 L 1608,1471 L 1608,1470 L 1607,1469 L 1607,1467 L 1606,1466 L 1606,1464 L 1605,1463 L 1605,1462 L 1604,1461 L 1604,1460 L 1603,1459 L 1603,1457 L 1602,1456 L 1602,1455 L 1601,1454 L 1601,1453 L 1600,1452 L 1600,1451 L 1599,1450 L 1599,1449 L 1598,1448 L 1598,1447 L 1597,1446 L 1597,1445 L 1596,1444 L 1596,1443 L 1595,1442 L 1595,1441 L 1594,1440 L 1594,1439 L 1593,1438 L 1593,1437 L 1591,1435 L 1591,1434 L 1590,1433 L 1590,1432 L 1589,1431 L 1589,1430 L 1587,1428 L 1587,1427 L 1586,1426 L 1586,1425 L 1584,1423 L 1584,1422 L 1582,1420 L 1582,1419 L 1579,1416 L 1579,1415 L 1577,1413 L 1577,1412 L 1574,1409 L 1574,1408 L 1570,1404 L 1570,1403 L 1566,1399 L 1566,1398 L 1558,1390 L 1558,1389 L 1534,1365 L 1533,1365 L 1519,1351 L 1518,1351 L 1488,1321 L 1488,1320 L 1472,1304 L 1472,1303 L 1462,1293 L 1462,1292 L 1454,1284 L 1454,1283 L 1447,1276 L 1447,1275 L 1441,1269 L 1441,1268 L 1435,1262 L 1435,1261 L 1430,1256 L 1430,1255 L 1425,1250 L 1425,1249 L 1421,1245 L 1421,1244 L 1416,1239 L 1416,1238 L 1413,1235 L 1413,1234 L 1409,1230 L 1409,1229 L 1405,1225 L 1405,1224 L 1401,1220 L 1401,1219 L 1398,1216 L 1398,1215 L 1394,1211 L 1394,1210 L 1391,1207 L 1391,1206 L 1388,1203 L 1388,1202 L 1384,1198 L 1384,1197 L 1381,1194 L 1381,1193 L 1378,1190 L 1378,1189 L 1375,1186 L 1375,1185 L 1372,1182 L 1372,1181 L 1370,1179 L 1370,1178 L 1367,1175 L 1367,1174 L 1364,1171 L 1364,1170 L 1361,1167 L 1361,1166 L 1358,1163 L 1358,1162 L 1356,1160 L 1356,1159 L 1353,1156 L 1353,1155 L 1350,1152 L 1350,1151 L 1348,1149 L 1348,1148 L 1345,1145 L 1345,1144 L 1342,1141 L 1342,1140 L 1340,1138 L 1340,1137 L 1337,1134 L 1337,1133 L 1334,1130 L 1334,1129 L 1332,1127 L 1332,1126 L 1329,1123 L 1329,1122 L 1327,1120 L 1327,1119 L 1324,1116 L 1324,1115 L 1321,1112 L 1321,1111 L 1319,1109 L 1319,1108 L 1316,1105 L 1316,1104 L 1313,1101 L 1313,1100 L 1311,1098 L 1311,1097 L 1308,1094 L 1308,1093 L 1305,1090 L 1305,1089 L 1303,1087 L 1303,1086 L 1300,1083 L 1300,1082 L 1297,1079 L 1297,1078 L 1294,1075 L 1294,1074 L 1291,1071 L 1291,1070 L 1288,1067 L 1288,1066 L 1285,1063 L 1285,1062 L 1282,1059 L 1282,1058 L 1279,1055 L 1279,1054 L 1276,1051 L 1276,1050 L 1273,1047 L 1273,1046 L 1269,1042 L 1269,1041 L 1266,1038 L 1266,1037 L 1262,1033 L 1262,1032 L 1258,1028 L 1258,1027 L 1253,1022 L 1253,1021 L 1248,1016 L 1248,1015 L 1243,1010 L 1243,1009 L 1235,1001 L 1235,1000 L 1219,984 L 1219,983 L 1216,980 L 1215,980 L 1200,965 L 1199,965 L 1193,959 L 1192,959 L 1187,954 L 1186,954 L 1183,951 L 1182,951 L 1179,948 L 1178,948 L 1175,945 L 1174,945 L 1172,943 L 1171,943 L 1169,941 L 1168,941 L 1166,939 L 1165,939 L 1163,937 L 1162,937 L 1160,935 L 1159,935 L 1158,934 L 1157,934 L 1155,932 L 1154,932 L 1153,931 L 1152,931 L 1151,930 L 1150,930 L 1149,929 L 1148,929 L 1146,927 L 1145,927 L 1144,926 L 1143,926 L 1142,925 L 1141,925 L 1140,924 L 1139,924 L 1138,923 L 1137,923 L 1136,922 L 1135,922 L 1134,921 L 1132,921 L 1131,920 L 1130,920 L 1129,919 L 1128,919 L 1127,918 L 1125,918 L 1124,917 L 1123,917 L 1122,916 L 1121,916 L 1120,915 L 1118,915 L 1117,914 L 1115,914 L 1114,913 L 1113,913 L 1112,912 L 1110,912 L 1109,911 L 1107,911 L 1106,910 L 1103,910 L 1102,909 L 1100,909 L 1099,908 L 1096,908 L 1095,907 L 1092,907 L 1091,906 L 1088,906 L 1087,905 L 1083,905 L 1082,904 L 1078,904 L 1077,903 L 1072,903 L 1071,902 L 1065,902 L 1064,901 L 1056,901 L 1055,900 L 1043,900 L 1042,899 Z" />
    <path d="M 390,666 L 389,667 L 381,667 L 380,668 L 375,668 L 374,669 L 370,669 L 369,670 L 366,670 L 365,671 L 362,671 L 361,672 L 358,672 L 357,673 L 355,673 L 354,674 L 352,674 L 351,675 L 349,675 L 348,676 L 347,676 L 346,677 L 344,677 L 343,678 L 342,678 L 341,679 L 339,679 L 338,680 L 337,680 L 336,681 L 335,681 L 334,682 L 333,682 L 332,683 L 331,683 L 330,684 L 329,684 L 328,685 L 327,685 L 326,686 L 325,686 L 324,687 L 323,687 L 321,689 L 320,689 L 319,690 L 318,690 L 316,692 L 315,692 L 313,694 L 312,694 L 310,696 L 309,696 L 306,699 L 305,699 L 301,703 L 300,703 L 279,724 L 279,725 L 274,730 L 274,731 L 271,734 L 271,735 L 268,738 L 268,739 L 266,741 L 266,742 L 263,745 L 263,746 L 261,748 L 261,749 L 260,750 L 260,751 L 258,753 L 258,754 L 256,756 L 256,757 L 255,758 L 255,759 L 253,761 L 253,762 L 252,763 L 252,764 L 251,765 L 251,766 L 250,767 L 250,768 L 249,769 L 249,770 L 248,771 L 248,772 L 247,773 L 247,774 L 246,775 L 246,776 L 245,777 L 245,778 L 244,779 L 244,780 L 243,781 L 243,782 L 242,783 L 242,784 L 241,785 L 241,786 L 240,787 L 240,789 L 239,790 L 239,791 L 238,792 L 238,793 L 237,794 L 237,796 L 236,797 L 236,798 L 235,799 L 235,801 L 234,802 L 234,803 L 233,804 L 233,806 L 232,807 L 232,809 L 231,810 L 231,811 L 230,812 L 230,814 L 229,815 L 229,817 L 228,818 L 228,820 L 227,821 L 227,824 L 226,825 L 226,827 L 225,828 L 225,830 L 224,831 L 224,834 L 223,835 L 223,837 L 222,838 L 222,841 L 221,842 L 221,845 L 220,846 L 220,849 L 219,850 L 219,853 L 218,854 L 218,858 L 217,859 L 217,862 L 216,863 L 216,867 L 215,868 L 215,872 L 214,873 L 214,878 L 213,879 L 213,883 L 212,884 L 212,890 L 211,891 L 211,897 L 210,898 L 210,905 L 209,906 L 209,914 L 208,915 L 208,925 L 207,926 L 207,943 L 206,944 L 206,983 L 207,984 L 207,1002 L 208,1003 L 208,1013 L 209,1014 L 209,1023 L 210,1024 L 210,1030 L 211,1031 L 211,1037 L 212,1038 L 212,1043 L 213,1044 L 213,1048 L 214,1049 L 214,1053 L 215,1054 L 215,1058 L 216,1059 L 216,1062 L 217,1063 L 217,1066 L 218,1067 L 218,1070 L 219,1071 L 219,1074 L 220,1075 L 220,1077 L 221,1078 L 221,1081 L 222,1082 L 222,1084 L 223,1085 L 223,1087 L 224,1088 L 224,1090 L 225,1091 L 225,1093 L 226,1094 L 226,1096 L 227,1097 L 227,1098 L 228,1099 L 228,1101 L 229,1102 L 229,1104 L 230,1105 L 230,1106 L 231,1107 L 231,1108 L 232,1109 L 232,1111 L 233,1112 L 233,1113 L 234,1114 L 234,1115 L 235,1116 L 235,1118 L 236,1119 L 236,1120 L 237,1121 L 237,1122 L 238,1123 L 238,1124 L 239,1125 L 239,1126 L 240,1127 L 240,1128 L 241,1129 L 241,1130 L 242,1131 L 242,1132 L 243,1133 L 243,1134 L 245,1136 L 245,1137 L 246,1138 L 246,1139 L 247,1140 L 247,1141 L 248,1142 L 248,1143 L 250,1145 L 250,1146 L 251,1147 L 251,1148 L 253,1150 L 253,1151 L 255,1153 L 255,1154 L 257,1156 L 257,1157 L 259,1159 L 259,1160 L 262,1163 L 262,1164 L 264,1166 L 264,1167 L 267,1170 L 267,1171 L 271,1175 L 271,1176 L 277,1182 L 277,1183 L 298,1204 L 299,1204 L 304,1209 L 305,1209 L 310,1214 L 311,1214 L 314,1217 L 315,1217 L 318,1220 L 319,1220 L 321,1222 L 322,1222 L 324,1224 L 325,1224 L 327,1226 L 328,1226 L 329,1227 L 330,1227 L 332,1229 L 333,1229 L 334,1230 L 335,1230 L 337,1232 L 338,1232 L 339,1233 L 340,1233 L 341,1234 L 342,1234 L 344,1236 L 345,1236 L 346,1237 L 347,1237 L 348,1238 L 349,1238 L 350,1239 L 351,1239 L 352,1240 L 353,1240 L 354,1241 L 356,1241 L 357,1242 L 358,1242 L 359,1243 L 360,1243 L 361,1244 L 362,1244 L 363,1245 L 365,1245 L 366,1246 L 368,1246 L 369,1247 L 370,1247 L 371,1248 L 373,1248 L 374,1249 L 376,1249 L 377,1250 L 379,1250 L 380,1251 L 383,1251 L 384,1252 L 386,1252 L 387,1253 L 390,1253 L 391,1254 L 394,1254 L 395,1255 L 398,1255 L 399,1256 L 403,1256 L 404,1257 L 409,1257 L 410,1258 L 415,1258 L 416,1259 L 422,1259 L 423,1260 L 431,1260 L 432,1261 L 448,1261 L 449,1262 L 459,1262 L 460,1261 L 475,1261 L 476,1260 L 484,1260 L 485,1259 L 490,1259 L 491,1258 L 495,1258 L 496,1257 L 500,1257 L 501,1256 L 505,1256 L 506,1255 L 509,1255 L 510,1254 L 513,1254 L 514,1253 L 517,1253 L 518,1252 L 520,1252 L 521,1251 L 523,1251 L 524,1250 L 526,1250 L 527,1249 L 529,1249 L 530,1248 L 532,1248 L 533,1247 L 535,1247 L 536,1246 L 537,1246 L 538,1245 L 540,1245 L 541,1244 L 542,1244 L 543,1243 L 545,1243 L 546,1242 L 547,1242 L 548,1241 L 549,1241 L 550,1240 L 551,1240 L 552,1239 L 553,1239 L 554,1238 L 555,1238 L 556,1237 L 557,1237 L 558,1236 L 559,1236 L 560,1235 L 561,1235 L 562,1234 L 563,1234 L 565,1232 L 566,1232 L 567,1231 L 568,1231 L 570,1229 L 571,1229 L 572,1228 L 573,1228 L 575,1226 L 576,1226 L 578,1224 L 579,1224 L 582,1221 L 583,1221 L 586,1218 L 587,1218 L 592,1213 L 593,1213 L 601,1205 L 602,1205 L 608,1199 L 608,1198 L 617,1189 L 617,1188 L 621,1184 L 621,1183 L 625,1179 L 625,1178 L 628,1175 L 628,1174 L 630,1172 L 630,1171 L 632,1169 L 632,1168 L 634,1166 L 634,1165 L 635,1164 L 635,1163 L 637,1161 L 637,1160 L 639,1158 L 639,1157 L 640,1156 L 640,1155 L 641,1154 L 641,1153 L 643,1151 L 643,1150 L 644,1149 L 644,1148 L 645,1147 L 645,1146 L 646,1145 L 646,1144 L 647,1143 L 647,1142 L 648,1141 L 648,1140 L 649,1139 L 649,1138 L 650,1137 L 650,1135 L 651,1134 L 651,1133 L 652,1132 L 652,1131 L 653,1130 L 653,1128 L 654,1127 L 654,1126 L 655,1125 L 655,1123 L 656,1122 L 656,1121 L 657,1120 L 657,1118 L 658,1117 L 658,1115 L 659,1114 L 659,1113 L 660,1112 L 660,1110 L 661,1109 L 661,1107 L 662,1106 L 662,1103 L 663,1102 L 663,1100 L 664,1099 L 664,1096 L 665,1095 L 665,1093 L 666,1092 L 666,1089 L 667,1088 L 667,1084 L 668,1083 L 668,1080 L 669,1079 L 669,1074 L 670,1073 L 670,1069 L 671,1068 L 671,1062 L 672,1061 L 672,1054 L 673,1053 L 673,1043 L 674,1042 L 674,1002 L 673,1001 L 673,990 L 672,989 L 672,981 L 671,980 L 671,974 L 670,973 L 670,968 L 669,967 L 669,962 L 668,961 L 668,957 L 667,956 L 667,952 L 666,951 L 666,947 L 665,946 L 665,943 L 664,942 L 664,938 L 663,937 L 663,934 L 662,933 L 662,931 L 661,930 L 661,927 L 660,926 L 660,923 L 659,922 L 659,920 L 658,919 L 658,916 L 657,915 L 657,913 L 656,912 L 656,910 L 655,909 L 655,907 L 654,906 L 654,904 L 653,903 L 653,901 L 652,900 L 652,898 L 651,897 L 651,895 L 650,894 L 650,892 L 649,891 L 649,889 L 648,888 L 648,886 L 647,885 L 647,883 L 646,882 L 646,881 L 645,880 L 645,878 L 644,877 L 644,875 L 643,874 L 643,873 L 642,872 L 642,870 L 641,869 L 641,868 L 640,867 L 640,865 L 639,864 L 639,863 L 638,862 L 638,861 L 637,860 L 637,858 L 636,857 L 636,856 L 635,855 L 635,854 L 634,853 L 634,851 L 633,850 L 633,849 L 632,848 L 632,847 L 631,846 L 631,845 L 630,844 L 630,842 L 629,841 L 629,840 L 628,839 L 628,838 L 627,837 L 627,836 L 626,835 L 626,834 L 625,833 L 625,832 L 624,831 L 624,830 L 623,829 L 623,828 L 622,827 L 622,826 L 621,825 L 621,824 L 620,823 L 620,822 L 619,821 L 619,820 L 617,818 L 617,817 L 616,816 L 616,815 L 615,814 L 615,813 L 614,812 L 614,811 L 612,809 L 612,808 L 611,807 L 611,806 L 610,805 L 610,804 L 608,802 L 608,801 L 607,800 L 607,799 L 605,797 L 605,796 L 604,795 L 604,794 L 602,792 L 602,791 L 600,789 L 600,788 L 598,786 L 598,785 L 596,783 L 596,782 L 594,780 L 594,779 L 591,776 L 591,775 L 589,773 L 589,772 L 586,769 L 586,768 L 584,766 L 584,765 L 580,761 L 580,760 L 576,756 L 576,755 L 571,750 L 571,749 L 565,743 L 565,742 L 540,717 L 539,717 L 533,711 L 532,711 L 529,708 L 528,708 L 524,704 L 523,704 L 520,701 L 519,701 L 517,699 L 516,699 L 514,697 L 513,697 L 511,695 L 510,695 L 509,694 L 508,694 L 506,692 L 505,692 L 504,691 L 503,691 L 502,690 L 501,690 L 499,688 L 498,688 L 497,687 L 496,687 L 495,686 L 494,686 L 493,685 L 492,685 L 491,684 L 490,684 L 489,683 L 488,683 L 487,682 L 486,682 L 485,681 L 484,681 L 483,680 L 481,680 L 480,679 L 479,679 L 478,678 L 476,678 L 475,677 L 474,677 L 473,676 L 471,676 L 470,675 L 468,675 L 467,674 L 464,674 L 463,673 L 461,673 L 460,672 L 457,672 L 456,671 L 453,671 L 452,670 L 448,670 L 447,669 L 443,669 L 442,668 L 436,668 L 435,667 L 427,667 L 426,666 Z" />
    <path d="M 1626,661 L 1625,662 L 1616,662 L 1615,663 L 1610,663 L 1609,664 L 1605,664 L 1604,665 L 1601,665 L 1600,666 L 1597,666 L 1596,667 L 1593,667 L 1592,668 L 1589,668 L 1588,669 L 1586,669 L 1585,670 L 1583,670 L 1582,671 L 1580,671 L 1579,672 L 1577,672 L 1576,673 L 1575,673 L 1574,674 L 1572,674 L 1571,675 L 1570,675 L 1569,676 L 1567,676 L 1566,677 L 1565,677 L 1564,678 L 1563,678 L 1562,679 L 1561,679 L 1560,680 L 1559,680 L 1558,681 L 1557,681 L 1556,682 L 1555,682 L 1554,683 L 1553,683 L 1552,684 L 1551,684 L 1550,685 L 1549,685 L 1547,687 L 1546,687 L 1545,688 L 1544,688 L 1543,689 L 1542,689 L 1540,691 L 1539,691 L 1537,693 L 1536,693 L 1535,694 L 1534,694 L 1532,696 L 1531,696 L 1529,698 L 1528,698 L 1525,701 L 1524,701 L 1521,704 L 1520,704 L 1516,708 L 1515,708 L 1510,713 L 1509,713 L 1484,738 L 1484,739 L 1478,745 L 1478,746 L 1473,751 L 1473,752 L 1469,756 L 1469,757 L 1466,760 L 1466,761 L 1463,764 L 1463,765 L 1460,768 L 1460,769 L 1458,771 L 1458,772 L 1455,775 L 1455,776 L 1453,778 L 1453,779 L 1451,781 L 1451,782 L 1449,784 L 1449,785 L 1447,787 L 1447,788 L 1445,790 L 1445,791 L 1443,793 L 1443,794 L 1442,795 L 1442,796 L 1440,798 L 1440,799 L 1439,800 L 1439,801 L 1437,803 L 1437,804 L 1436,805 L 1436,806 L 1435,807 L 1435,808 L 1433,810 L 1433,811 L 1432,812 L 1432,813 L 1431,814 L 1431,815 L 1429,817 L 1429,818 L 1428,819 L 1428,820 L 1427,821 L 1427,822 L 1426,823 L 1426,824 L 1425,825 L 1425,826 L 1424,827 L 1424,828 L 1423,829 L 1423,830 L 1422,831 L 1422,832 L 1421,833 L 1421,834 L 1420,835 L 1420,836 L 1419,837 L 1419,838 L 1418,839 L 1418,840 L 1417,841 L 1417,843 L 1416,844 L 1416,845 L 1415,846 L 1415,847 L 1414,848 L 1414,849 L 1413,850 L 1413,851 L 1412,852 L 1412,854 L 1411,855 L 1411,856 L 1410,857 L 1410,858 L 1409,859 L 1409,861 L 1408,862 L 1408,863 L 1407,864 L 1407,866 L 1406,867 L 1406,868 L 1405,869 L 1405,871 L 1404,872 L 1404,873 L 1403,874 L 1403,876 L 1402,877 L 1402,879 L 1401,880 L 1401,881 L 1400,882 L 1400,884 L 1399,885 L 1399,887 L 1398,888 L 1398,890 L 1397,891 L 1397,893 L 1396,894 L 1396,896 L 1395,897 L 1395,899 L 1394,900 L 1394,902 L 1393,903 L 1393,906 L 1392,907 L 1392,909 L 1391,910 L 1391,912 L 1390,913 L 1390,916 L 1389,917 L 1389,919 L 1388,920 L 1388,923 L 1387,924 L 1387,927 L 1386,928 L 1386,930 L 1385,931 L 1385,934 L 1384,935 L 1384,938 L 1383,939 L 1383,943 L 1382,944 L 1382,947 L 1381,948 L 1381,952 L 1380,953 L 1380,957 L 1379,958 L 1379,962 L 1378,963 L 1378,968 L 1377,969 L 1377,974 L 1376,975 L 1376,981 L 1375,982 L 1375,989 L 1374,990 L 1374,1001 L 1373,1002 L 1373,1042 L 1374,1043 L 1374,1053 L 1375,1054 L 1375,1061 L 1376,1062 L 1376,1068 L 1377,1069 L 1377,1074 L 1378,1075 L 1378,1079 L 1379,1080 L 1379,1084 L 1380,1085 L 1380,1088 L 1381,1089 L 1381,1092 L 1382,1093 L 1382,1096 L 1383,1097 L 1383,1100 L 1384,1101 L 1384,1103 L 1385,1104 L 1385,1106 L 1386,1107 L 1386,1110 L 1387,1111 L 1387,1113 L 1388,1114 L 1388,1115 L 1389,1116 L 1389,1118 L 1390,1119 L 1390,1121 L 1391,1122 L 1391,1123 L 1392,1124 L 1392,1126 L 1393,1127 L 1393,1128 L 1394,1129 L 1394,1131 L 1395,1132 L 1395,1133 L 1396,1134 L 1396,1135 L 1397,1136 L 1397,1138 L 1398,1139 L 1398,1140 L 1399,1141 L 1399,1142 L 1400,1143 L 1400,1144 L 1401,1145 L 1401,1146 L 1402,1147 L 1402,1148 L 1403,1149 L 1403,1150 L 1404,1151 L 1404,1152 L 1406,1154 L 1406,1155 L 1407,1156 L 1407,1157 L 1408,1158 L 1408,1159 L 1410,1161 L 1410,1162 L 1411,1163 L 1411,1164 L 1413,1166 L 1413,1167 L 1415,1169 L 1415,1170 L 1417,1172 L 1417,1173 L 1419,1175 L 1419,1176 L 1422,1179 L 1422,1180 L 1425,1183 L 1425,1184 L 1429,1188 L 1429,1189 L 1435,1195 L 1435,1196 L 1451,1212 L 1452,1212 L 1458,1218 L 1459,1218 L 1463,1222 L 1464,1222 L 1467,1225 L 1468,1225 L 1470,1227 L 1471,1227 L 1474,1230 L 1475,1230 L 1476,1231 L 1477,1231 L 1479,1233 L 1480,1233 L 1482,1235 L 1483,1235 L 1485,1237 L 1486,1237 L 1487,1238 L 1488,1238 L 1489,1239 L 1490,1239 L 1492,1241 L 1493,1241 L 1494,1242 L 1495,1242 L 1496,1243 L 1497,1243 L 1498,1244 L 1499,1244 L 1500,1245 L 1501,1245 L 1502,1246 L 1503,1246 L 1504,1247 L 1506,1247 L 1507,1248 L 1508,1248 L 1509,1249 L 1510,1249 L 1511,1250 L 1513,1250 L 1514,1251 L 1515,1251 L 1516,1252 L 1518,1252 L 1519,1253 L 1521,1253 L 1522,1254 L 1523,1254 L 1524,1255 L 1526,1255 L 1527,1256 L 1530,1256 L 1531,1257 L 1533,1257 L 1534,1258 L 1537,1258 L 1538,1259 L 1541,1259 L 1542,1260 L 1545,1260 L 1546,1261 L 1550,1261 L 1551,1262 L 1555,1262 L 1556,1263 L 1561,1263 L 1562,1264 L 1570,1264 L 1571,1265 L 1583,1265 L 1584,1266 L 1603,1266 L 1604,1265 L 1617,1265 L 1618,1264 L 1626,1264 L 1627,1263 L 1632,1263 L 1633,1262 L 1638,1262 L 1639,1261 L 1643,1261 L 1644,1260 L 1647,1260 L 1648,1259 L 1651,1259 L 1652,1258 L 1655,1258 L 1656,1257 L 1659,1257 L 1660,1256 L 1662,1256 L 1663,1255 L 1665,1255 L 1666,1254 L 1668,1254 L 1669,1253 L 1671,1253 L 1672,1252 L 1674,1252 L 1675,1251 L 1676,1251 L 1677,1250 L 1679,1250 L 1680,1249 L 1681,1249 L 1682,1248 L 1684,1248 L 1685,1247 L 1686,1247 L 1687,1246 L 1688,1246 L 1689,1245 L 1690,1245 L 1691,1244 L 1692,1244 L 1693,1243 L 1695,1243 L 1697,1241 L 1698,1241 L 1699,1240 L 1700,1240 L 1701,1239 L 1702,1239 L 1703,1238 L 1704,1238 L 1705,1237 L 1706,1237 L 1708,1235 L 1709,1235 L 1710,1234 L 1711,1234 L 1713,1232 L 1714,1232 L 1715,1231 L 1716,1231 L 1718,1229 L 1719,1229 L 1721,1227 L 1722,1227 L 1724,1225 L 1725,1225 L 1727,1223 L 1728,1223 L 1730,1221 L 1731,1221 L 1734,1218 L 1735,1218 L 1739,1214 L 1740,1214 L 1745,1209 L 1746,1209 L 1770,1185 L 1770,1184 L 1775,1179 L 1775,1178 L 1779,1174 L 1779,1173 L 1782,1170 L 1782,1169 L 1784,1167 L 1784,1166 L 1787,1163 L 1787,1162 L 1789,1160 L 1789,1159 L 1791,1157 L 1791,1156 L 1793,1154 L 1793,1153 L 1795,1151 L 1795,1150 L 1796,1149 L 1796,1148 L 1798,1146 L 1798,1145 L 1799,1144 L 1799,1143 L 1801,1141 L 1801,1140 L 1802,1139 L 1802,1138 L 1803,1137 L 1803,1136 L 1804,1135 L 1804,1134 L 1805,1133 L 1805,1132 L 1806,1131 L 1806,1130 L 1807,1129 L 1807,1128 L 1808,1127 L 1808,1126 L 1809,1125 L 1809,1124 L 1810,1123 L 1810,1122 L 1811,1121 L 1811,1120 L 1812,1119 L 1812,1118 L 1813,1117 L 1813,1115 L 1814,1114 L 1814,1113 L 1815,1112 L 1815,1111 L 1816,1110 L 1816,1108 L 1817,1107 L 1817,1106 L 1818,1105 L 1818,1103 L 1819,1102 L 1819,1100 L 1820,1099 L 1820,1098 L 1821,1097 L 1821,1095 L 1822,1094 L 1822,1092 L 1823,1091 L 1823,1089 L 1824,1088 L 1824,1086 L 1825,1085 L 1825,1082 L 1826,1081 L 1826,1079 L 1827,1078 L 1827,1075 L 1828,1074 L 1828,1071 L 1829,1070 L 1829,1068 L 1830,1067 L 1830,1063 L 1831,1062 L 1831,1059 L 1832,1058 L 1832,1055 L 1833,1054 L 1833,1050 L 1834,1049 L 1834,1045 L 1835,1044 L 1835,1039 L 1836,1038 L 1836,1032 L 1837,1031 L 1837,1025 L 1838,1024 L 1838,1017 L 1839,1016 L 1839,1006 L 1840,1005 L 1840,990 L 1841,989 L 1841,943 L 1840,942 L 1840,926 L 1839,925 L 1839,915 L 1838,914 L 1838,905 L 1837,904 L 1837,897 L 1836,896 L 1836,890 L 1835,889 L 1835,884 L 1834,883 L 1834,878 L 1833,877 L 1833,872 L 1832,871 L 1832,867 L 1831,866 L 1831,862 L 1830,861 L 1830,858 L 1829,857 L 1829,853 L 1828,852 L 1828,849 L 1827,848 L 1827,845 L 1826,844 L 1826,841 L 1825,840 L 1825,837 L 1824,836 L 1824,834 L 1823,833 L 1823,830 L 1822,829 L 1822,827 L 1821,826 L 1821,824 L 1820,823 L 1820,821 L 1819,820 L 1819,818 L 1818,817 L 1818,815 L 1817,814 L 1817,812 L 1816,811 L 1816,809 L 1815,808 L 1815,806 L 1814,805 L 1814,804 L 1813,803 L 1813,801 L 1812,800 L 1812,799 L 1811,798 L 1811,796 L 1810,795 L 1810,794 L 1809,793 L 1809,791 L 1808,790 L 1808,789 L 1807,788 L 1807,787 L 1806,786 L 1806,784 L 1805,783 L 1805,782 L 1804,781 L 1804,780 L 1803,779 L 1803,778 L 1802,777 L 1802,776 L 1801,775 L 1801,774 L 1800,773 L 1800,772 L 1799,771 L 1799,770 L 1798,769 L 1798,768 L 1797,767 L 1797,766 L 1796,765 L 1796,764 L 1795,763 L 1795,762 L 1793,760 L 1793,759 L 1792,758 L 1792,757 L 1791,756 L 1791,755 L 1789,753 L 1789,752 L 1787,750 L 1787,749 L 1786,748 L 1786,747 L 1784,745 L 1784,744 L 1782,742 L 1782,741 L 1779,738 L 1779,737 L 1777,735 L 1777,734 L 1773,730 L 1773,729 L 1769,725 L 1769,724 L 1762,717 L 1762,716 L 1752,706 L 1751,706 L 1744,699 L 1743,699 L 1739,695 L 1738,695 L 1735,692 L 1734,692 L 1732,690 L 1731,690 L 1729,688 L 1728,688 L 1726,686 L 1725,686 L 1723,684 L 1722,684 L 1721,683 L 1720,683 L 1719,682 L 1718,682 L 1716,680 L 1715,680 L 1714,679 L 1713,679 L 1712,678 L 1711,678 L 1710,677 L 1709,677 L 1708,676 L 1707,676 L 1706,675 L 1704,675 L 1703,674 L 1702,674 L 1701,673 L 1700,673 L 1699,672 L 1697,672 L 1696,671 L 1694,671 L 1693,670 L 1691,670 L 1690,669 L 1688,669 L 1687,668 L 1685,668 L 1684,667 L 1681,667 L 1680,666 L 1677,666 L 1676,665 L 1673,665 L 1672,664 L 1667,664 L 1666,663 L 1661,663 L 1660,662 L 1651,662 L 1650,661 Z" />
    <path d="M 1285,245 L 1284,246 L 1270,246 L 1269,247 L 1262,247 L 1261,248 L 1256,248 L 1255,249 L 1251,249 L 1250,250 L 1247,250 L 1246,251 L 1243,251 L 1242,252 L 1239,252 L 1238,253 L 1236,253 L 1235,254 L 1233,254 L 1232,255 L 1230,255 L 1229,256 L 1227,256 L 1226,257 L 1224,257 L 1223,258 L 1222,258 L 1221,259 L 1219,259 L 1218,260 L 1217,260 L 1216,261 L 1215,261 L 1214,262 L 1213,262 L 1212,263 L 1210,263 L 1209,264 L 1208,264 L 1207,265 L 1206,265 L 1205,266 L 1204,266 L 1203,267 L 1202,267 L 1200,269 L 1199,269 L 1198,270 L 1197,270 L 1196,271 L 1195,271 L 1193,273 L 1192,273 L 1191,274 L 1190,274 L 1188,276 L 1187,276 L 1185,278 L 1184,278 L 1181,281 L 1180,281 L 1177,284 L 1176,284 L 1173,287 L 1172,287 L 1168,291 L 1167,291 L 1158,300 L 1157,300 L 1145,312 L 1145,313 L 1137,321 L 1137,322 L 1132,327 L 1132,328 L 1128,332 L 1128,333 L 1125,336 L 1125,337 L 1122,340 L 1122,341 L 1119,344 L 1119,345 L 1117,347 L 1117,348 L 1115,350 L 1115,351 L 1113,353 L 1113,354 L 1111,356 L 1111,357 L 1109,359 L 1109,360 L 1107,362 L 1107,363 L 1105,365 L 1105,366 L 1104,367 L 1104,368 L 1102,370 L 1102,371 L 1101,372 L 1101,373 L 1100,374 L 1100,375 L 1098,377 L 1098,378 L 1097,379 L 1097,380 L 1096,381 L 1096,382 L 1095,383 L 1095,384 L 1093,386 L 1093,387 L 1092,388 L 1092,389 L 1091,390 L 1091,391 L 1090,392 L 1090,393 L 1089,394 L 1089,395 L 1088,396 L 1088,397 L 1087,398 L 1087,399 L 1086,400 L 1086,401 L 1085,402 L 1085,403 L 1084,404 L 1084,405 L 1083,406 L 1083,407 L 1082,408 L 1082,409 L 1081,410 L 1081,412 L 1080,413 L 1080,414 L 1079,415 L 1079,416 L 1078,417 L 1078,418 L 1077,419 L 1077,421 L 1076,422 L 1076,423 L 1075,424 L 1075,425 L 1074,426 L 1074,428 L 1073,429 L 1073,430 L 1072,431 L 1072,433 L 1071,434 L 1071,435 L 1070,436 L 1070,438 L 1069,439 L 1069,440 L 1068,441 L 1068,443 L 1067,444 L 1067,446 L 1066,447 L 1066,448 L 1065,449 L 1065,451 L 1064,452 L 1064,454 L 1063,455 L 1063,457 L 1062,458 L 1062,460 L 1061,461 L 1061,463 L 1060,464 L 1060,466 L 1059,467 L 1059,469 L 1058,470 L 1058,472 L 1057,473 L 1057,475 L 1056,476 L 1056,479 L 1055,480 L 1055,482 L 1054,483 L 1054,486 L 1053,487 L 1053,490 L 1052,491 L 1052,493 L 1051,494 L 1051,497 L 1050,498 L 1050,501 L 1049,502 L 1049,505 L 1048,506 L 1048,509 L 1047,510 L 1047,514 L 1046,515 L 1046,518 L 1045,519 L 1045,523 L 1044,524 L 1044,528 L 1043,529 L 1043,533 L 1042,534 L 1042,539 L 1041,540 L 1041,545 L 1040,546 L 1040,552 L 1039,553 L 1039,561 L 1038,562 L 1038,570 L 1037,571 L 1037,586 L 1036,587 L 1036,613 L 1037,614 L 1037,627 L 1038,628 L 1038,636 L 1039,637 L 1039,643 L 1040,644 L 1040,650 L 1041,651 L 1041,655 L 1042,656 L 1042,660 L 1043,661 L 1043,664 L 1044,665 L 1044,668 L 1045,669 L 1045,672 L 1046,673 L 1046,676 L 1047,677 L 1047,680 L 1048,681 L 1048,683 L 1049,684 L 1049,686 L 1050,687 L 1050,689 L 1051,690 L 1051,692 L 1052,693 L 1052,695 L 1053,696 L 1053,698 L 1054,699 L 1054,701 L 1055,702 L 1055,703 L 1056,704 L 1056,706 L 1057,707 L 1057,708 L 1058,709 L 1058,711 L 1059,712 L 1059,713 L 1060,714 L 1060,715 L 1061,716 L 1061,717 L 1062,718 L 1062,720 L 1063,721 L 1063,722 L 1064,723 L 1064,724 L 1065,725 L 1065,726 L 1066,727 L 1066,728 L 1068,730 L 1068,731 L 1069,732 L 1069,733 L 1070,734 L 1070,735 L 1071,736 L 1071,737 L 1073,739 L 1073,740 L 1074,741 L 1074,742 L 1076,744 L 1076,745 L 1077,746 L 1077,747 L 1079,749 L 1079,750 L 1081,752 L 1081,753 L 1083,755 L 1083,756 L 1086,759 L 1086,760 L 1089,763 L 1089,764 L 1093,768 L 1093,769 L 1098,774 L 1098,775 L 1117,794 L 1118,794 L 1123,799 L 1124,799 L 1128,803 L 1129,803 L 1132,806 L 1133,806 L 1135,808 L 1136,808 L 1139,811 L 1140,811 L 1142,813 L 1143,813 L 1145,815 L 1146,815 L 1147,816 L 1148,816 L 1150,818 L 1151,818 L 1152,819 L 1153,819 L 1154,820 L 1155,820 L 1156,821 L 1157,821 L 1159,823 L 1160,823 L 1161,824 L 1162,824 L 1163,825 L 1164,825 L 1165,826 L 1166,826 L 1167,827 L 1169,827 L 1170,828 L 1171,828 L 1172,829 L 1173,829 L 1174,830 L 1175,830 L 1176,831 L 1178,831 L 1179,832 L 1180,832 L 1181,833 L 1183,833 L 1184,834 L 1185,834 L 1186,835 L 1188,835 L 1189,836 L 1191,836 L 1192,837 L 1195,837 L 1196,838 L 1198,838 L 1199,839 L 1201,839 L 1202,840 L 1205,840 L 1206,841 L 1210,841 L 1211,842 L 1214,842 L 1215,843 L 1220,843 L 1221,844 L 1226,844 L 1227,845 L 1234,845 L 1235,846 L 1246,846 L 1247,847 L 1277,847 L 1278,846 L 1289,846 L 1290,845 L 1297,845 L 1298,844 L 1303,844 L 1304,843 L 1309,843 L 1310,842 L 1313,842 L 1314,841 L 1318,841 L 1319,840 L 1321,840 L 1322,839 L 1325,839 L 1326,838 L 1328,838 L 1329,837 L 1331,837 L 1332,836 L 1335,836 L 1336,835 L 1337,835 L 1338,834 L 1340,834 L 1341,833 L 1343,833 L 1344,832 L 1345,832 L 1346,831 L 1348,831 L 1349,830 L 1350,830 L 1351,829 L 1353,829 L 1354,828 L 1355,828 L 1356,827 L 1357,827 L 1358,826 L 1359,826 L 1360,825 L 1361,825 L 1362,824 L 1363,824 L 1364,823 L 1365,823 L 1366,822 L 1367,822 L 1368,821 L 1369,821 L 1370,820 L 1371,820 L 1372,819 L 1373,819 L 1374,818 L 1375,818 L 1377,816 L 1378,816 L 1379,815 L 1380,815 L 1382,813 L 1383,813 L 1384,812 L 1385,812 L 1387,810 L 1388,810 L 1390,808 L 1391,808 L 1394,805 L 1395,805 L 1397,803 L 1398,803 L 1402,799 L 1403,799 L 1407,795 L 1408,795 L 1415,788 L 1416,788 L 1429,775 L 1429,774 L 1437,766 L 1437,765 L 1441,761 L 1441,760 L 1444,757 L 1444,756 L 1447,753 L 1447,752 L 1450,749 L 1450,748 L 1452,746 L 1452,745 L 1454,743 L 1454,742 L 1456,740 L 1456,739 L 1458,737 L 1458,736 L 1459,735 L 1459,734 L 1461,732 L 1461,731 L 1462,730 L 1462,729 L 1463,728 L 1463,727 L 1465,725 L 1465,724 L 1466,723 L 1466,722 L 1467,721 L 1467,720 L 1468,719 L 1468,718 L 1469,717 L 1469,716 L 1470,715 L 1470,714 L 1471,713 L 1471,712 L 1472,711 L 1472,710 L 1473,709 L 1473,708 L 1474,707 L 1474,706 L 1475,705 L 1475,704 L 1476,703 L 1476,701 L 1477,700 L 1477,699 L 1478,698 L 1478,697 L 1479,696 L 1479,694 L 1480,693 L 1480,692 L 1481,691 L 1481,689 L 1482,688 L 1482,686 L 1483,685 L 1483,683 L 1484,682 L 1484,680 L 1485,679 L 1485,677 L 1486,676 L 1486,674 L 1487,673 L 1487,671 L 1488,670 L 1488,667 L 1489,666 L 1489,664 L 1490,663 L 1490,660 L 1491,659 L 1491,656 L 1492,655 L 1492,652 L 1493,651 L 1493,648 L 1494,647 L 1494,643 L 1495,642 L 1495,638 L 1496,637 L 1496,632 L 1497,631 L 1497,626 L 1498,625 L 1498,619 L 1499,618 L 1499,611 L 1500,610 L 1500,600 L 1501,599 L 1501,583 L 1502,582 L 1502,548 L 1501,547 L 1501,530 L 1500,529 L 1500,518 L 1499,517 L 1499,509 L 1498,508 L 1498,500 L 1497,499 L 1497,493 L 1496,492 L 1496,486 L 1495,485 L 1495,480 L 1494,479 L 1494,475 L 1493,474 L 1493,469 L 1492,468 L 1492,464 L 1491,463 L 1491,460 L 1490,459 L 1490,455 L 1489,454 L 1489,451 L 1488,450 L 1488,447 L 1487,446 L 1487,442 L 1486,441 L 1486,439 L 1485,438 L 1485,435 L 1484,434 L 1484,431 L 1483,430 L 1483,428 L 1482,427 L 1482,424 L 1481,423 L 1481,421 L 1480,420 L 1480,418 L 1479,417 L 1479,414 L 1478,413 L 1478,411 L 1477,410 L 1477,408 L 1476,407 L 1476,406 L 1475,405 L 1475,403 L 1474,402 L 1474,400 L 1473,399 L 1473,397 L 1472,396 L 1472,395 L 1471,394 L 1471,392 L 1470,391 L 1470,390 L 1469,389 L 1469,387 L 1468,386 L 1468,385 L 1467,384 L 1467,383 L 1466,382 L 1466,380 L 1465,379 L 1465,378 L 1464,377 L 1464,376 L 1463,375 L 1463,374 L 1462,373 L 1462,371 L 1461,370 L 1461,369 L 1460,368 L 1460,367 L 1459,366 L 1459,365 L 1458,364 L 1458,363 L 1457,362 L 1457,361 L 1456,360 L 1456,359 L 1455,358 L 1455,357 L 1453,355 L 1453,354 L 1452,353 L 1452,352 L 1451,351 L 1451,350 L 1450,349 L 1450,348 L 1448,346 L 1448,345 L 1447,344 L 1447,343 L 1445,341 L 1445,340 L 1444,339 L 1444,338 L 1442,336 L 1442,335 L 1440,333 L 1440,332 L 1438,330 L 1438,329 L 1436,327 L 1436,326 L 1433,323 L 1433,322 L 1430,319 L 1430,318 L 1426,314 L 1426,313 L 1420,307 L 1420,306 L 1402,288 L 1401,288 L 1396,283 L 1395,283 L 1391,279 L 1390,279 L 1387,276 L 1386,276 L 1384,274 L 1383,274 L 1381,272 L 1380,272 L 1378,270 L 1377,270 L 1376,269 L 1375,269 L 1373,267 L 1372,267 L 1371,266 L 1370,266 L 1369,265 L 1368,265 L 1367,264 L 1366,264 L 1365,263 L 1364,263 L 1363,262 L 1362,262 L 1361,261 L 1360,261 L 1359,260 L 1358,260 L 1357,259 L 1355,259 L 1354,258 L 1353,258 L 1352,257 L 1351,257 L 1350,256 L 1348,256 L 1347,255 L 1345,255 L 1344,254 L 1342,254 L 1341,253 L 1339,253 L 1338,252 L 1335,252 L 1334,251 L 1332,251 L 1331,250 L 1327,250 L 1326,249 L 1322,249 L 1321,248 L 1316,248 L 1315,247 L 1309,247 L 1308,246 L 1294,246 L 1293,245 Z" />
    <path d="M 755,245 L 754,246 L 740,246 L 739,247 L 732,247 L 731,248 L 726,248 L 725,249 L 721,249 L 720,250 L 717,250 L 716,251 L 713,251 L 712,252 L 709,252 L 708,253 L 706,253 L 705,254 L 703,254 L 702,255 L 700,255 L 699,256 L 697,256 L 696,257 L 695,257 L 694,258 L 692,258 L 691,259 L 690,259 L 689,260 L 688,260 L 687,261 L 686,261 L 685,262 L 684,262 L 683,263 L 682,263 L 681,264 L 680,264 L 679,265 L 678,265 L 677,266 L 676,266 L 675,267 L 674,267 L 672,269 L 671,269 L 670,270 L 669,270 L 667,272 L 666,272 L 664,274 L 663,274 L 661,276 L 660,276 L 657,279 L 656,279 L 652,283 L 651,283 L 646,288 L 645,288 L 627,306 L 627,307 L 621,313 L 621,314 L 617,318 L 617,319 L 614,322 L 614,323 L 611,326 L 611,327 L 609,329 L 609,330 L 607,332 L 607,333 L 605,335 L 605,336 L 603,338 L 603,339 L 602,340 L 602,341 L 600,343 L 600,344 L 599,345 L 599,346 L 597,348 L 597,349 L 596,350 L 596,351 L 594,353 L 594,354 L 593,355 L 593,356 L 592,357 L 592,358 L 591,359 L 591,360 L 590,361 L 590,362 L 589,363 L 589,364 L 588,365 L 588,366 L 587,367 L 587,368 L 586,369 L 586,370 L 585,371 L 585,373 L 584,374 L 584,375 L 583,376 L 583,377 L 582,378 L 582,379 L 581,380 L 581,382 L 580,383 L 580,384 L 579,385 L 579,386 L 578,387 L 578,389 L 577,390 L 577,392 L 576,393 L 576,394 L 575,395 L 575,397 L 574,398 L 574,399 L 573,400 L 573,402 L 572,403 L 572,405 L 571,406 L 571,408 L 570,409 L 570,411 L 569,412 L 569,414 L 568,415 L 568,417 L 567,418 L 567,421 L 566,422 L 566,424 L 565,425 L 565,427 L 564,428 L 564,431 L 563,432 L 563,435 L 562,436 L 562,438 L 561,439 L 561,442 L 560,443 L 560,446 L 559,447 L 559,450 L 558,451 L 558,455 L 557,456 L 557,459 L 556,460 L 556,464 L 555,465 L 555,469 L 554,470 L 554,474 L 553,475 L 553,479 L 552,480 L 552,485 L 551,486 L 551,492 L 550,493 L 550,499 L 549,500 L 549,508 L 548,509 L 548,518 L 547,519 L 547,531 L 546,532 L 546,555 L 545,556 L 545,578 L 546,579 L 546,599 L 547,600 L 547,611 L 548,612 L 548,619 L 549,620 L 549,626 L 550,627 L 550,633 L 551,634 L 551,638 L 552,639 L 552,643 L 553,644 L 553,648 L 554,649 L 554,652 L 555,653 L 555,656 L 556,657 L 556,660 L 557,661 L 557,663 L 558,664 L 558,667 L 559,668 L 559,670 L 560,671 L 560,673 L 561,674 L 561,676 L 562,677 L 562,679 L 563,680 L 563,682 L 564,683 L 564,685 L 565,686 L 565,688 L 566,689 L 566,691 L 567,692 L 567,693 L 568,694 L 568,696 L 569,697 L 569,698 L 570,699 L 570,700 L 571,701 L 571,703 L 572,704 L 572,705 L 573,706 L 573,707 L 574,708 L 574,709 L 575,710 L 575,711 L 576,712 L 576,713 L 577,714 L 577,715 L 578,716 L 578,717 L 579,718 L 579,719 L 580,720 L 580,721 L 581,722 L 581,723 L 582,724 L 582,725 L 584,727 L 584,728 L 585,729 L 585,730 L 586,731 L 586,732 L 588,734 L 588,735 L 589,736 L 589,737 L 591,739 L 591,740 L 593,742 L 593,743 L 595,745 L 595,746 L 597,748 L 597,749 L 600,752 L 600,753 L 603,756 L 603,757 L 607,761 L 607,762 L 612,767 L 612,768 L 637,793 L 638,793 L 643,798 L 644,798 L 647,801 L 648,801 L 651,804 L 652,804 L 655,807 L 656,807 L 658,809 L 659,809 L 661,811 L 662,811 L 664,813 L 665,813 L 667,815 L 668,815 L 669,816 L 670,816 L 672,818 L 673,818 L 674,819 L 675,819 L 676,820 L 677,820 L 678,821 L 679,821 L 680,822 L 681,822 L 683,824 L 684,824 L 685,825 L 687,825 L 688,826 L 689,826 L 690,827 L 691,827 L 692,828 L 693,828 L 694,829 L 695,829 L 696,830 L 698,830 L 699,831 L 700,831 L 701,832 L 703,832 L 704,833 L 705,833 L 706,834 L 708,834 L 709,835 L 711,835 L 712,836 L 714,836 L 715,837 L 717,837 L 718,838 L 721,838 L 722,839 L 725,839 L 726,840 L 729,840 L 730,841 L 733,841 L 734,842 L 738,842 L 739,843 L 743,843 L 744,844 L 749,844 L 750,845 L 757,845 L 758,846 L 769,846 L 770,847 L 799,847 L 800,846 L 812,846 L 813,845 L 820,845 L 821,844 L 826,844 L 827,843 L 832,843 L 833,842 L 836,842 L 837,841 L 841,841 L 842,840 L 845,840 L 846,839 L 848,839 L 849,838 L 852,838 L 853,837 L 855,837 L 856,836 L 858,836 L 859,835 L 861,835 L 862,834 L 864,834 L 865,833 L 866,833 L 867,832 L 869,832 L 870,831 L 871,831 L 872,830 L 874,830 L 875,829 L 876,829 L 877,828 L 878,828 L 879,827 L 880,827 L 881,826 L 882,826 L 883,825 L 884,825 L 885,824 L 886,824 L 887,823 L 888,823 L 889,822 L 890,822 L 891,821 L 892,821 L 894,819 L 895,819 L 896,818 L 897,818 L 898,817 L 899,817 L 901,815 L 902,815 L 904,813 L 905,813 L 907,811 L 908,811 L 910,809 L 911,809 L 914,806 L 915,806 L 918,803 L 919,803 L 923,799 L 924,799 L 930,793 L 931,793 L 948,776 L 948,775 L 954,769 L 954,768 L 958,764 L 958,763 L 961,760 L 961,759 L 964,756 L 964,755 L 966,753 L 966,752 L 968,750 L 968,749 L 970,747 L 970,746 L 971,745 L 971,744 L 973,742 L 973,741 L 974,740 L 974,739 L 976,737 L 976,736 L 977,735 L 977,734 L 978,733 L 978,732 L 979,731 L 979,730 L 981,728 L 981,727 L 982,726 L 982,725 L 983,724 L 983,723 L 984,722 L 984,720 L 985,719 L 985,718 L 986,717 L 986,716 L 987,715 L 987,714 L 988,713 L 988,712 L 989,711 L 989,709 L 990,708 L 990,707 L 991,706 L 991,704 L 992,703 L 992,701 L 993,700 L 993,699 L 994,698 L 994,696 L 995,695 L 995,693 L 996,692 L 996,690 L 997,689 L 997,687 L 998,686 L 998,684 L 999,683 L 999,680 L 1000,679 L 1000,677 L 1001,676 L 1001,673 L 1002,672 L 1002,669 L 1003,668 L 1003,665 L 1004,664 L 1004,661 L 1005,660 L 1005,656 L 1006,655 L 1006,650 L 1007,649 L 1007,644 L 1008,643 L 1008,637 L 1009,636 L 1009,628 L 1010,627 L 1010,613 L 1011,612 L 1011,585 L 1010,584 L 1010,570 L 1009,569 L 1009,560 L 1008,559 L 1008,552 L 1007,551 L 1007,545 L 1006,544 L 1006,539 L 1005,538 L 1005,533 L 1004,532 L 1004,528 L 1003,527 L 1003,523 L 1002,522 L 1002,518 L 1001,517 L 1001,514 L 1000,513 L 1000,510 L 999,509 L 999,506 L 998,505 L 998,502 L 997,501 L 997,498 L 996,497 L 996,494 L 995,493 L 995,490 L 994,489 L 994,487 L 993,486 L 993,483 L 992,482 L 992,480 L 991,479 L 991,476 L 990,475 L 990,473 L 989,472 L 989,470 L 988,469 L 988,467 L 987,466 L 987,464 L 986,463 L 986,461 L 985,460 L 985,458 L 984,457 L 984,455 L 983,454 L 983,452 L 982,451 L 982,449 L 981,448 L 981,447 L 980,446 L 980,444 L 979,443 L 979,441 L 978,440 L 978,439 L 977,438 L 977,436 L 976,435 L 976,434 L 975,433 L 975,431 L 974,430 L 974,429 L 973,428 L 973,426 L 972,425 L 972,424 L 971,423 L 971,422 L 970,421 L 970,419 L 969,418 L 969,417 L 968,416 L 968,415 L 967,414 L 967,413 L 966,412 L 966,410 L 965,409 L 965,408 L 964,407 L 964,406 L 963,405 L 963,404 L 962,403 L 962,402 L 961,401 L 961,400 L 960,399 L 960,398 L 959,397 L 959,396 L 958,395 L 958,394 L 957,393 L 957,392 L 956,391 L 956,390 L 955,389 L 955,388 L 953,386 L 953,385 L 952,384 L 952,383 L 951,382 L 951,381 L 950,380 L 950,379 L 948,377 L 948,376 L 947,375 L 947,374 L 945,372 L 945,371 L 944,370 L 944,369 L 942,367 L 942,366 L 941,365 L 941,364 L 939,362 L 939,361 L 937,359 L 937,358 L 935,356 L 935,355 L 933,353 L 933,352 L 931,350 L 931,349 L 928,346 L 928,345 L 926,343 L 926,342 L 923,339 L 923,338 L 920,335 L 920,334 L 916,330 L 916,329 L 911,324 L 911,323 L 906,318 L 906,317 L 882,293 L 881,293 L 876,288 L 875,288 L 872,285 L 871,285 L 868,282 L 867,282 L 865,280 L 864,280 L 861,277 L 860,277 L 858,275 L 857,275 L 856,274 L 855,274 L 853,272 L 852,272 L 851,271 L 850,271 L 848,269 L 847,269 L 846,268 L 845,268 L 844,267 L 843,267 L 842,266 L 841,266 L 840,265 L 839,265 L 838,264 L 837,264 L 836,263 L 835,263 L 834,262 L 833,262 L 832,261 L 831,261 L 830,260 L 828,260 L 827,259 L 826,259 L 825,258 L 824,258 L 823,257 L 821,257 L 820,256 L 818,256 L 817,255 L 815,255 L 814,254 L 812,254 L 811,253 L 809,253 L 808,252 L 806,252 L 805,251 L 802,251 L 801,250 L 798,250 L 797,249 L 793,249 L 792,248 L 787,248 L 786,247 L 780,247 L 779,246 L 766,246 L 765,245 Z" />
  </g>
</svg>
